<?xml version="1.0" encoding="UTF-8"?><!DOCTYPE svg PUBLIC "-//W3C//DTD SVG 1.1//EN" "http://www.w3.org/Graphics/SVG/1.1/DTD/svg11.dtd"><svg xmlns="http://www.w3.org/2000/svg"><symbol id="cd_0_0" viewBox="0 0 28.000000 28.000000"><path d="M0 14v14h28V0H0v14zm21-8.1c.5 1.1 1 4.1 1 6.6 0 4-.5 5.2-3.4 8.1C13.2 26 8 24.9 8 18.3 8 9.3 17.8 0 21 5.9zM15.1 6.9c-.8.5-1.1 1.6-.8 2.4.3.9 0 1.4-1 1.3-1.9-.1-4.4 6.4-3.6 9.3.4 1.5 1.3 2.1 3.3 2.1 4.7 0 8.2-6.1 7.2-12.8-.4-3.3-2.2-4.1-5.1-2.3z"/></symbol><symbol id="cd_0_1" viewBox="0 0 28.000000 28.000000"><path d="M0 14v14h28V0H0v14zm19.4-5.6c3.2 5.5 3.4 10.2.4 13.3-2.6 2.8-4.8 2.9-7.5.3-3.8-3.5-4.1-12.2-.5-16.3 2.5-2.8 4.8-2 7.6 2.7zM12.5 9c-2.7 5.3 1.4 14.8 5.3 12.4 2.9-1.9 3.3-6.2.9-11-2.6-5.1-4.1-5.5-6.2-1.4z"/></symbol><symbol id="cd_0_2" viewBox="0 0 28.000000 28.000000"><path d="M0 14v14h28V0H0v14zm14-8.4c0 .3-1.3 1.7-3 3.1-2.2 1.8-3 3.3-3 5.7 0 4 1.5 5.6 5.4 5.6 3.3 0 9.6-5.2 9.6-8 0-3.2-4.9-5.3-7.6-3.3-.5.5-.1 0 .9-1 2.2-2 4-2.1 6.8-.7 4.1 2.3.8 12.9-4.7 15-4 1.5-8.9 1.2-10.7-.8C4.2 17.3 4.7 11.3 9 7c1.8-1.8 5-2.8 5-1.4z"/></symbol><symbol id="cd_0_3" viewBox="0 0 28.000000 28.000000"><path d="M0 14v14h28V0H0v14zm22.3-4c1.1 6.2-1 11.2-5.8 13.4-8.4 4-14.1-.6-10-8.2C9 10.7 16.6 4.8 19.4 5.2c1.6.2 2.3 1.3 2.9 4.8zM11.6 12.6c-2.9 3-3.6 4.5-3.4 6.9.3 2.8.6 3 4.1 2.9 5.3-.2 7.7-2.7 7.7-8.1 0-2.3-.4-4.3-.9-4.3s-1.6-.3-2.4-.6c-.9-.3-2.9 1-5.1 3.2z"/></symbol><symbol id="cd_0_4" viewBox="0 0 28.000000 28.000000"><path d="M0 14v14h28V0H0v14zm20-7.5c.8 1 1.1 3.3.8 6.7-.5 4.4-1.1 5.7-4.2 8.5-3.8 3.5-8.3 4.4-9.3 1.7-1-2.8 1.6-9.1 5.1-12.2 1.9-1.7 3.2-3.2 2.9-3.5-.8-.9.7-2.7 2.1-2.7.8 0 1.9.7 2.6 1.5zM13.1 12.6c-1.1 1.5-1.8 3-1.5 3.5.3.5.1.9-.4.9-1.4 0-2.5 5.1-1.4 6.2 1.3 1.3 5.5-1.5 7-4.5.6-1.2 1.3-3.6 1.7-5.2.5-2.4.4-2.8-.6-1.8-1.8 1.8-3.4 1.6-1.9-.2.8-.9.8-1.5.2-1.5-.6 0-2 1.2-3.1 2.6z"/></symbol><symbol id="cd_0_5" viewBox="0 0 28.000000 28.000000"><path d="M0 14v14h28V0H0v14zm16.4-6.5c.3.8 1.4 1.5 2.5 1.5 5.2 0 6.5 10.2 1.8 13.5-4.9 3.4-16.7.2-16.7-4.6 0-3.6 2.3-6.9 7-10.2 3-2.1 4.6-2.2 5.4-.2zM9.9 11c-.9.5-2.2 2.3-2.9 4-1.2 2.8-1.1 3.3 1 5.5 3.1 3.3 9.2 3.5 11.4.3 3.3-4.6 1-9.6-4.5-10.4-1.9-.2-4.1 0-5 .6z"/></symbol><symbol id="cd_1_0" viewBox="0 0 28.000000 28.000000"><path d="M0 14v14h28V0H0v14zm15.3.4c-1.5 5.3-3.1 9.6-3.6 9.6-.4 0-.5-1.2-.2-2.8 1-4.3 5.7-17.3 6.2-16.9.2.3-.9 4.8-2.4 10.1z"/></symbol><symbol id="cd_1_1" viewBox="0 0 28.000000 28.000000"><path d="M0 14v14h28V0H0v14zm16.6-2.3c-.2 3.8-.4 8.3-.5 10-.1 2.4-.6 3.3-1.7 3.3-1.5 0-1.6-.9-1.1-6.8.4-3.7.7-8.2.7-10C14 6 14.5 5 15.5 5c1.2 0 1.4 1.3 1.1 6.7z"/></symbol><symbol id="cd_1_2" viewBox="0 0 28.000000 28.000000"><path d="M0 14v14h28V0H0v14zm18-8.6c0 .2-.9 3.4-2.1 7.2-1.1 3.7-1.9 8-1.7 9.6.6 3.6-.9 3.7-1.8.1-1-3.9 2.7-17.3 4.8-17.3.4 0 .8.2.8.4z"/></symbol><symbol id="cd_1_3" viewBox="0 0 28.000000 28.000000"><path d="M0 14v14h28V0H0v14zm15-6c0 1.6.5 5.2 1.1 8 1.2 5.8.4 10.2-1.2 6.1-1.5-3.9-2.4-18.5-1-17.7.6.4 1.1 2 1.1 3.6z"/></symbol><symbol id="cd_1_4" viewBox="0 0 28.000000 28.000000"><path d="M0 14v14h28V0H0v14zm18.2-6.4C18 9.2 17 12.9 16 15.8c-1.1 2.9-1.9 5.8-1.7 6.4.1.7-.7 1.4-1.7 1.6-1.7.4-1.8 0-1.2-3.7.5-3.5 1.4-6.8 4.2-14.9.8-2.5 2.9-.5 2.6 2.4z"/></symbol><symbol id="cd_1_5" viewBox="0 0 28.000000 28.000000"><path d="M0 14v14h28V0H0v14zm20-9c0 2.2-3.5 9.7-6.2 13.1-1.5 2-2.8 4.2-2.8 4.8 0 .6-.9 1.1-2 1.1-1.9 0-1.9-.2.5-4.8 1.5-2.6 3-5.4 3.6-6.2.5-.8 1.6-3.2 2.4-5.3C16.9 4.4 20 2.5 20 5z"/></symbol><symbol id="cd_2_0" viewBox="0 0 28.000000 28.000000"><path d="M0 14v14h28V0H0v14zm19.4-7.4c2.4.9 2.1 7.1-.3 7.9-1 .3-2.7 1.5-3.7 2.6l-1.9 2.1 5.8-.7c6.7-.9 7.6.5 1.4 2.3-4.9 1.5-14.9 1.2-15.4-.3-.1-.6 2.4-2.7 5.7-4.9 3.3-2.1 6-4.2 6-4.7 0-1.3-4.7-1.1-7.2.2-1.4.7-2.3.8-3 .1-.7-.7 0-1.7 2.3-3.1 3.4-2.1 7.3-2.6 10.3-1.5z"/></symbol><symbol id="cd_2_1" viewBox="0 0 28.000000 28.000000"><path d="M0 14v14h28V0H0v14zm15.5-8.5c3 2.9 3.3 7.7.6 10.4-1.9 1.9-1.9 1.9 1.3 2.5 3.7.7 7.4 3.1 6.4 4.1-.3.4-1.5.2-2.6-.4-2.4-1.3-7.5-1.5-11.7-.6-2.8.6-2.7.4 2.3-4 2.8-2.6 5.2-5.3 5.2-6 0-.8-1-2.6-2.3-4.1-1.9-2.2-2.9-2.6-5-2C8.1 5.8 7 6.7 7 7.7c0 .9-.3 1.4-.6 1-1-1 .6-4.6 2.4-5 3.4-.9 4.3-.7 6.7 1.8z"/></symbol><symbol id="cd_2_2" viewBox="0 0 28.000000 28.000000"><path d="M0 14v14h28V0H0v14zm18.8-8.8c2 2 1.4 3.9-2.9 10-2.2 3.2-3.7 5.8-3.2 5.9.4.1 2.6 0 4.8 0 3.8-.1 3.9-.1 2.1 1.4-2.5 1.9-12.6 2.1-12.6.2 0-.6 1.6-2.7 3.4-4.5 3.4-3.3 7.2-9.9 6.3-10.9-.3-.2-1.4 0-2.5.6C13 8.5 11.3 9 10.3 9c-1.4-.1-1.2-.6 1.2-2.5 3.3-2.7 5.5-3.1 7.3-1.3z"/></symbol><symbol id="cd_2_3" viewBox="0 0 28.000000 28.000000"><path d="M0 14v14h28V0H0v14zm18.8-4.7c.2 2.5-.4 4.9-1.8 7.2-1.7 2.8-1.9 3.8-1 5.5 1.5 2.8.5 3.8-1.1 1.1-.9-1.4-2-1.9-3.5-1.5-1.2.3-2.5 0-2.9-.6-1.1-1.7 2.5-5.1 4.7-4.4 1.4.4 2.2-.2 3.2-2.7 2.6-6.2-.4-9.2-4.3-4.2-1.2 1.4-2.5 2.3-2.9 1.9-1.1-1.1 5.7-6.8 7.6-6.4 1.2.2 1.8 1.5 2 4.1zM10 19.5c0 .9.6 1.2 1.5.9.8-.4 1.5-1 1.5-1.5s-.7-.9-1.5-.9-1.5.7-1.5 1.5z"/></symbol><symbol id="cd_2_4" viewBox="0 0 28.000000 28.000000"><path d="M0 14v14h28V0H0v14zm19.2-8.4c.9 1.8.9 3.6.1 6.5-1 3.9-1 4 2.3 5.5 1.9.9 3.4 2 3.4 2.3 0 1.8-1.5 1.9-4.9.1l-3.7-1.9-3 2.4c-4 3.3-7.4 3.3-7.4.1 0-2.3 1.1-3.7 3.5-4.3 2.5-.6 5.1-1.2 5.6-1.2.9-.1 2.5-4.4 2.5-6.5-.1-2.8-2.1-3.1-4.5-.7-2.4 2.4-4.1 2.7-4.1.8C9 7.3 14.8 3 16.8 3c.7 0 1.8 1.2 2.4 2.6zM9 18.5c-.7.9-1 1.8-.7 2.1.9.9 4.8-1.6 4.2-2.7-.9-1.3-2.1-1.1-3.5.6z"/></symbol><symbol id="cd_2_5" viewBox="0 0 28.000000 28.000000"><path d="M0 14v14h28V0H0v14zm17.5-7.6c1.8 1.3 1.8 1.9.8 5.7-1.3 5-1.1 5.3 5.1 6.5l4.1.8-3.3.4c-1.9.2-4.7-.1-6.2-.7-2.5-.8-3-.7-3.5.9-.8 2.4-3.2 3.2-5.6 2-3.7-2-1.5-6 3.2-6 2.1 0 2.9-.7 3.8-3.1.6-1.7.8-3.5.5-4-.7-1.2-5.1-1.1-5.9.1-.3.5-1.4 1-2.3 1-1.3-.1-1-.6 1.1-2.5 3.2-2.8 5.5-3.1 8.2-1.1zM9.5 18.9c-.3.5-.1 1.2.5 1.6 1.2.7 3-.2 3-1.6 0-1.2-2.7-1.2-3.5 0z"/></symbol><symbol id="cd_3_0" viewBox="0 0 28.000000 28.000000"><path d="M0 14v14h28V0H0v14zm18.1-6.9c-.3.8-.4 3.1-.2 5.3.2 4.1-1.7 7.9-5.3 10.8-2.6 2.1-5.6 2.3-5.6.4 0-2 1.7-2.9 2.3-1.4.6 1.8 5.3-2.7 6.6-6.3 1.1-3.1.1-4.5-2.4-3.5-.8.3-1.7.1-2-.4-.3-.5.3-1.1 1.4-1.5 1.1-.3 2.2-1.3 2.6-2.3.5-1.4.4-1.5-.6-.5-.7.7-2 1.3-2.8 1.3-1.2-.1-.9-.6.8-2.1 2.7-2.2 5.8-2.1 5.2.2z"/></symbol><symbol id="cd_3_1" viewBox="0 0 28.000000 28.000000"><path d="M0 14v14h28V0H0v14zm16.5-8.6c1.2.8 1.6 1.9 1.1 3.1-.3 1-.1 2.4.5 3.1 1.4 1.7.6 8.8-1.1 10.9-2.6 3.2-10 1-9.9-2.8v-2.2l.9 2.3c.7 1.6 1.8 2.2 3.9 2.2 3.4 0 5.1-2.2 5.1-6.8 0-3.6-.8-4.4-3.2-3.1-3 1.6-3.3.3-.4-2.2 2.6-2.2 2.6-4.5 0-3.5-.8.3-1.4-.1-1.4-.9 0-1.9 2-1.9 4.5-.1z"/></symbol><symbol id="cd_3_2" viewBox="0 0 28.000000 28.000000"><path d="M0 14v14h28V0H0v14zm17.8-7.8c.9.9.8 1.6-.5 3-1.4 1.5-1.4 2.2-.3 4.2 1.8 3.5.6 6.7-3.5 9.5-5.3 3.6-5.6 1.6-.5-2.8 4.5-3.9 4.5-3.9 2.6-6-1.6-1.8-1.7-2.5-.8-4.6 1.3-2.9.6-3.2-2.6-.9-2.8 2-2.8 1.1 0-1.6 2.5-2.3 3.9-2.5 5.6-.8z"/></symbol><symbol id="cd_3_3" viewBox="0 0 28.000000 28.000000"><path d="M0 14v14h28V0H0v14zm19.8-8.4c2.2 1.5 2.2 1.7.7 4.1-1.5 2.3-1.5 2.6 0 4.3 2.2 2.5 1.3 6.4-2 8.6-1.8 1.2-3.9 1.5-7 1.2-5.3-.6-7.5-2.2-7.5-5.4 0-3 2-4.2 2.7-1.5.6 2.4 4.1 3.6 7.9 2.7 3.7-1 2.8-4-1.5-4.6-4.8-.7-4.9-2.6-.4-4.6l3.8-1.8-3-.4c-3-.4-4.8-1.9-3.9-3.4.9-1.4 7.9-.9 10.2.8z"/></symbol><symbol id="cd_3_4" viewBox="0 0 28.000000 28.000000"><path d="M0 14v14h28V0H0v14zm16.1-7c2.3 1.3 2.6 6.2.5 8-1.2.9-1.3 1.7-.4 3.6 1.5 3.1-.6 7.4-3.6 7.4-2 0-2 0 .2-1.6 2.7-1.9 2.8-4.5.2-6.9-2-1.8-2-1.8.2-2.9 1.5-.7 2.3-2.1 2.3-3.6 0-2.2-.4-2.5-3.2-2.4-3.2.2-4.1-.5-2.6-1.9 1-1 4.2-.8 6.4.3z"/></symbol><symbol id="cd_3_5" viewBox="0 0 28.000000 28.000000"><path d="M0 14v14h28V0H0v14zm19.8-7.4c3 2.1 2.8 3.1-1 5.4-1.8 1.1-2.7 2-1.9 2 .8 0 2.3.7 3.2 1.6 2.3 2.1 1.1 4.7-3.4 7.1-3.6 1.8-12.3 2.8-13.2 1.3-.8-1.3 1.2-2.2 5.5-2.5 3.7-.3 8-2.3 8-3.7 0-.4-1.9-1.2-4.2-1.9-2.4-.6-4.7-1.3-5.2-1.6-1.1-.7 1.2-2.1 5.7-3.3 4.9-1.4 3.9-3-1.9-2.8-2.5 0-4.7-.2-5-.5-2.8-2.8 9.5-3.8 13.4-1.1z"/></symbol><symbol id="cd_4_0" viewBox="0 0 28.000000 28.000000"><path d="M0 14v14h28V0H0v14zm18.4-8.4c.3.9.6 3.3.6 5.4 0 3.3.4 3.9 2.7 4.5 2.6.6 2.6.8 1 1.9-.9.7-1.7 2.5-1.7 4 0 1.9-.5 2.6-2 2.6s-2-.7-2-2.9c0-2.9-.2-3-5.2-3.3l-5.3-.3-.3-5.8C6 7.3 6.2 6 7.3 6 9.1 6 10 8.1 10 12.1c0 2.6.4 2.9 3 2.9 3 0 3-.1 3-5.5 0-5.3 1.1-7.2 2.4-3.9z"/></symbol><symbol id="cd_4_1" viewBox="0 0 28.000000 28.000000"><path d="M0 14v14h28V0H0v14zm18.5-3.5C16.3 18.6 13.9 25 13 25c-.5 0-.3-1.9.5-4.1 1.9-5.4 2-5.2-1.5-4.6-1.6.4-3.2.3-3.4-.2C7.8 14.9 10 9 11.1 9c1.2 0 1.1.7-.1 3-.7 1.3-.7 2.1 0 2.5 2.1 1.3 4.9-.7 6.1-4.3 2.3-7.3 3.4-7.1 1.4.3z"/></symbol><symbol id="cd_4_2" viewBox="0 0 28.000000 28.000000"><path d="M0 14v14h28V0H0v14zm16-7.5c0 .3-.7 1.6-1.5 2.9-1.4 2.2-1.4 2.4.2 3 1.2.5 2.6-.4 4.8-3 1.8-2.1 3.4-3.3 3.8-2.7C24 7.8 10.5 26 8.9 26c-1.4 0-1.1-1.6.5-3 .8-.6 2.4-2.7 3.5-4.6 1.8-3 1.9-3.5.5-4.1-.8-.3-2.6-.1-4 .6-3.2 1.4-3.4 1.4-3.4-.3 0-.7 1.2-2.2 2.8-3.2 1.5-.9 3.3-2.6 4-3.6C14 6.1 16 5.3 16 6.5z"/></symbol><symbol id="cd_4_3" viewBox="0 0 28.000000 28.000000"><path d="M0 14v14h28V0H0v14zm24.5-8c.3.5-.1 1-.9 1-.9 0-2.3 1.7-3.2 4-2 5-2 5.4.8 6.2 2 .5 1.9.6-.8.7-3.1.1-5.1 2.2-3.8 4.2.3.5-.2.9-1 .9-.9 0-1.6-.8-1.6-1.8 0-1.3-1.2-2.1-4.2-2.8-2.3-.5-4.3-1.4-4.5-2-.5-1.5 4.6-7.6 5.8-6.8.5.3.2 1.8-.6 3.5C9 16 9 16 11.9 16c2.6 0 3.2-.6 5.5-5.5 1.8-4 3-5.5 4.5-5.5 1.1 0 2.3.4 2.6 1z"/></symbol><symbol id="cd_4_4" viewBox="0 0 28.000000 28.000000"><path d="M0 14v14h28V0H0v14zm20.6-5.3c-.8 6-4 14.6-5.6 15.1-1.3.5-1.1-2.4.5-6.1.6-1.3.2-1.7-1.6-1.7-1.3 0-3.8.4-5.6.9-5 1.5-4.9.8 1.5-8.5 1.2-1.8 1.2-1.7.9.6-.3 1.4-.8 3.3-1.2 4.2-.6 1.5-.2 1.7 3 1.4 4.2-.3 5.2-1.5 6.1-6.9 1-5.6 2.8-4.6 2 1z"/></symbol><symbol id="cd_4_5" viewBox="0 0 28.000000 28.000000"><path d="M0 14v14h28V0H0v14zm12-4.4c0 2.9.3 3.5 1.6 3 .9-.3 1.9-.6 2.4-.6.4 0 1.3-1.4 1.9-3 .9-2.7 3.1-4.2 3.1-2.1 0 .8-2.1 8.2-4 14.5-.5 1.6-.7 3.3-.4 3.7.3.5-.4.9-1.6.9-2 0-2.1-.4-1.5-4.3.4-2.3 1.2-4.8 1.7-5.4.8-1 .1-1.2-2.8-1-3.9.2-3.9.2-3.6-3.3.3-4.4.9-6 2.2-6 .5 0 1 1.6 1 3.6z"/></symbol><symbol id="cd_5_0" viewBox="0 0 28.000000 28.000000"><path d="M0 14v14h28V0H0v14zm21.8-7.3c.2.9-.9 1.3-3.6 1.3-2.2 0-4.5.6-5.2 1.5-.9 1.1-.5 2 2.3 4.5 1.9 1.6 3.7 3.9 4 4.9.7 2.6-2 6.3-4.1 5.7-1-.3-3.6-1-5.9-1.6-2.4-.6-4.3-1.7-4.3-2.4 0-1.2.9-1.1 5 .2 3.9 1.2 5.3 1.3 6.2.4 1.7-1.7 0-4.3-4-6.2-4.5-2.1-4-7.5.8-9.3 2.5-1 8.3-.3 8.8 1z"/></symbol><symbol id="cd_5_1" viewBox="0 0 28.000000 28.000000"><path d="M0 14v14h28V0H0v14zm20.8-7.7c.2 1.1-.9 1.9-3.7 2.7-4.8 1.3-5.3 3.5-1.6 7 2.7 2.6 3.2 4.9 1.3 6.8-1.5 1.5-6.1 1.5-7.6 0-1.9-1.9-1.4-2.7 2.1-3 3.7-.3 4.3-2.1.9-2.6-3.2-.5-3.7-2.7-1.7-7.1 1.2-2.7 2.6-4.2 4.8-4.9 3.9-1.2 5.1-1 5.5 1.1z"/></symbol><symbol id="cd_5_2" viewBox="0 0 28.000000 28.000000"><path d="M0 14v14h28V0H0v14zm18.3-8.7c2.4-.4 3.7-.2 3.7.6 0 .6-1.2 1.1-2.7 1.1-3.4 0-4.8.9-5.7 3.5-.5 1.6 0 2.3 2.4 3.2 2.6 1 3 1.7 3 4.7 0 3.7-2 5.6-5.9 5.6-2.4 0-5.1-2.5-5.1-4.8 0-1.3.3-1.2 1.6.6 1.9 2.7 6 2.9 7.4.3 1.6-3.1.2-5.1-3.6-5.1-3.2 0-3.4-.2-2.4-2.1.6-1.1 1.1-3.2 1-4.7-.3-4.1-.1-4.5 1.3-3.4.8.7 2.9.9 5 .5z"/></symbol><symbol id="cd_5_3" viewBox="0 0 28.000000 28.000000"><path d="M0 14v14h28V0H0v14zm22-8.8c0 .8-2.1 1.2-5.2 1-1-.1-2.2.7-2.8 1.8-.9 1.7-.8 2 1.3 2 1.6 0 3.1 1 4.2 2.6 1.4 2.2 1.5 3 .4 5.5-1.5 3.6-5.9 6.1-10.2 5.7-3.4-.3-5.4-3.8-2.2-3.8.9 0 1.3.4 1 1-1.1 1.9 4.2 1 6.9-1.1 1.7-1.4 2.6-3 2.6-5 0-2.4-.4-2.9-2.5-2.9-1.4 0-2.5.4-2.5 1 0 .5-1.1 1-2.5 1S8 13.7 8 13.4c0-.9 4.2-6.8 5.8-8.1 1.6-1.4 8.2-1.5 8.2-.1z"/></symbol><symbol id="cd_5_4" viewBox="0 0 28.000000 28.000000"><path d="M0 14v14h28V0H0v14zm24.3-5.1c.4.1.7.6.7 1.2 0 .7-.9.9-2.4.5-1.4-.3-4.1.2-6.6 1.3l-4.2 1.9 2.5 1.7c2.9 1.9 4.2 4.4 2.8 5.8-.5.5-3.3.7-6.6.2-6.6-.8-6.6-2 0-1.6 5 .3 5.7-.9 2-3.3-3-2-3.1-2.6-.6-5.7 1.6-2.1 2.7-2.4 6.7-2.3 2.7.1 5.2.3 5.7.3z"/></symbol><symbol id="cd_5_5" viewBox="0 0 28.000000 28.000000"><path d="M0 14v14h28V0H0v14zm22.1-7C24 7 25 7.5 25 8.5c0 1.5-3.4 2.8-6.6 2.5-3.4-.4-3.7 0-1.9 2.1 1.8 1.9 1.8 2.1.1 5.4-3.9 7.2-9.7 9.8-10.4 4.6-.3-2.1-.1-2.3 2.2-1.7 1.9.5 2.9.1 4-1.6 1.9-2.7 2.1-4.9.4-4.7-2.7.3-3.8-.1-3.8-1.5 0-2 7.2-7.7 8.8-7.1.8.3 2.7.5 4.3.5z"/></symbol><symbol id="cd_6_0" viewBox="0 0 28.000000 28.000000"><path d="M0 14v14h28V0H0v14zm20.9-7.9c-.5 1.1-2 2.4-3.2 2.9-2.3.8-9.7 8-8.3 8 .4 0 2.1-.7 3.7-1.6 4.2-2.1 8.3-1.5 8.7 1.3.6 4.4-8.4 6.9-13.6 3.7-4.4-2.8-1.6-7.9 7.8-14.2 4.8-3.3 6.6-3.3 4.9-.1z"/></symbol><symbol id="cd_6_1" viewBox="0 0 28.000000 28.000000"><path d="M0 14v14h28V0H0v14zM15 2.9c0 .5-.7 1.4-1.6 2.2C11.3 6.8 9 11.4 9 13.8c0 1.1.7 2.5 1.5 3.2 1.2 1 1.5 1 1.5-.2 0-3.9 9.5-8.3 12.6-5.7 3.8 3.1.3 7.9-7.1 9.8C7.1 23.5 2.4 15.3 9 6.2c2.7-3.8 6-5.6 6-3.3zM17.3 14.5c-1.6 1.3-2.5 2.6-2.1 3 1 1.1 7.8-1.5 7.8-3 0-2.4-3-2.4-5.7 0z"/></symbol><symbol id="cd_6_2" viewBox="0 0 28.000000 28.000000"><path d="M0 14v14h28V0H0v14zm16-9.9c0 .6-1.1 2.5-2.5 4.3-1.4 1.8-2.5 4.3-2.5 5.6 0 2.6 2.6 6 4.5 6 1.8 0 3.8-2.7 2.6-3.4-.5-.4-1.4.2-2 1.1-.9 1.7-1 1.7-1.6 0-1.7-4.3 2.7-6.4 5.9-2.8 2.3 2.6 1.3 5.6-2.3 7.1-3.4 1.4-6.1.3-8.5-3.2-2.3-3.3-2-6.5 1.2-11.4C13.3 3.3 16 1.6 16 4.1z"/></symbol><symbol id="cd_6_3" viewBox="0 0 28.000000 28.000000"><path d="M0 14v14h28V0H0v14zM19 3.2c0 .7-1.8 3.8-4 6.9-2.2 3.2-4 6-4 6.2 0 .3 2-.6 4.5-1.9 2.4-1.4 4.9-2.3 5.5-1.9 1.8 1.1 1.1 4.2-1.6 6.9-2.1 2-3.7 2.6-7 2.6-4.1 0-4.4-.2-4.4-2.6 0-1.5 2-5.4 4.5-9.1C15 6.8 17 3.5 17 3c0-.6.5-1 1-1 .6 0 1 .5 1 1.2zM15 16.9c-3.6 3-3.7 4.8-.3 3.7C17 19.9 21 16.3 21 15c0-1.8-2.6-1-6 1.9z"/></symbol><symbol id="cd_6_4" viewBox="0 0 28.000000 28.000000"><path d="M0 14v14h28V0H0v14zm14.1-4.6c-2.4 4.5-3.2 9.5-1.6 9.5.6.1 1-.6 1-1.4 0-2.5 3.3-5.5 6-5.5 3.4 0 3.3 2.9-.3 6.3-3.5 3.4-8.3 4.5-10.1 2.3-1.7-2.1-.8-9.6 1.3-11.2.9-.6 1.6-1.5 1.6-2s.8-2.1 1.7-3.4c1.6-2.2 1.8-2.3 2.1-.6.2 1-.6 3.7-1.7 6z"/></symbol><symbol id="cd_6_5" viewBox="0 0 28.000000 28.000000"><path d="M0 14v14h28V0H0v14zM20 4c0 .5-.6 1-1.3 1-.7 0-2.3 1.8-3.5 3.9-2.2 3.8-2.2 4-.3 4.6 2.6.8 3.4 4.5 1.5 7.3-1.9 2.9-4.6 2.5-5.8-1-1.1-3 1.1-9.9 4.5-14.2C17.1 3 20 2.1 20 4zM13 18.2c0 3 .1 3.1 1.6 1.6.9-.9 1.4-2.4 1.1-3.2-1.1-2.7-2.7-1.7-2.7 1.6z"/></symbol><symbol id="cd_7_0" viewBox="0 0 28.000000 28.000000"><path d="M0 14v14h28V0H0v14zm13.6-6c3.2.5 6.4 1.6 7.2 2.4 1.7 1.7.8 3.7-4.7 10.6-1.9 2.5-3.6 4.7-3.8 4.9-.1.1-.7.1-1.3-.1-.6-.2 1.2-3.4 4.1-7.2 5.5-7.3 5.5-8.5-.6-8.6C10.3 10 4 8.1 4 6.9c0-.6.9-.8 1.9-.4 1.1.3 4.5 1 7.7 1.5z"/></symbol><symbol id="cd_7_1" viewBox="0 0 28.000000 28.000000"><path d="M0 14v14h28V0H0v14zm19.1-6c1.8 1 1.8 1.2.3 4.3-1.3 2.4-6.5 10.9-9.1 14.6-.2.2-.6.2-.9-.2-.6-.6 3.6-8.4 6.8-12.6 1-1.3 1.8-3 1.8-3.7 0-2.3-2.8-1.6-4.6 1.1-2 3-3.4 3.2-3.4.6 0-1.1 1.2-2.6 2.8-3.4 3.4-1.9 3.9-1.9 6.3-.7z"/></symbol><symbol id="cd_7_2" viewBox="0 0 28.000000 28.000000"><path d="M0 14v14h28V0H0v14zm17.3-4.8c1.3.6 1.7 2.1 1.7 5.8 0 4.8-2.5 12-4.2 12-1.2 0-1-1.8.7-7.4 2.4-7.9 2.2-8.6-2.8-8.6C8.8 11 6 9.7 6 7.9 6 7 15 8 17.3 9.2z"/></symbol><symbol id="cd_7_3" viewBox="0 0 28.000000 28.000000"><path d="M0 14v14h28V0H0v14zm17.4-4.9c1.1 2.6 1 4.2-.2 9.7-1.8 7.7-1.9 7.9-3.1 6.6-.6-.5-.4-3.4.5-7.3.8-3.5 1.3-7 1-7.7-.9-2.3-2.6-1.6-2.6 1 0 2.5-2.2 5.1-3.3 3.9-1.2-1.1-.7-4.8.9-7.1 2.2-3.2 5.2-2.8 6.8.9z"/></symbol><symbol id="cd_7_4" viewBox="0 0 28.000000 28.000000"><path d="M0 14v14h28V0H0v14zm19.4-5.5c.7 1.8-7.4 17.7-9.3 18.3-.8.3.6-3.2 3.2-8.1C15.9 14 18 9.9 18 9.6c0-.3-1.1-.6-2.4-.6-1.5 0-3.2 1.1-4.5 2.7-2.4 3.3-2.9 1-.5-2.5 1.8-2.6 7.8-3.1 8.8-.7z"/></symbol><symbol id="cd_7_5" viewBox="0 0 28.000000 28.000000"><path d="M0 14v14h28V0H0v14zm14.9-5.4c2.4.5 3.1 1.2 3.1 3 0 1.7.6 2.4 1.9 2.4 1.1 0 2.8.3 3.8.7 1.3.6.6.9-2.7 1.3-4.2.5-4.5.7-4.8 3.7-.4 4.2-2.2 4.3-2.2.2 0-3-.2-3.1-3.1-2.5-2.2.4-2.9.2-2.7-.6.3-.7 1.9-1.6 3.8-1.9 3-.6 4.9-2.3 5-4.2 0-1.2-9.5-.8-10.8.5-.9.9-1.2.8-1.2-.4 0-1.5 1.5-2.2 5.6-2.7.6 0 2.6.2 4.3.5z"/></symbol><symbol id="cd_8_0" viewBox="0 0 28.000000 28.000000"><path d="M0 14v14h28V0H0v14zm20-6.3c.9.8 1.1 1.6.5 2.1-3.1 2.2-3.5 3.9-1.9 7.1 1.5 3.1 1.5 3.3-.6 5.6-2.5 2.7-5.4 2.3-7.6-1.1-1.2-1.7-1.3-2.7-.5-4.3.9-1.6.8-2.2-.6-2.9-1.4-.9-1.5-1.4-.3-4.1.7-1.7 2-3.6 2.9-4.1 1.9-1.1 6.1-.3 8.1 1.7zM12.2 9.2c-1.9 1.9-1.4 3.8 1.1 3.8S18 11.3 18 9.3c0-1.6-4.2-1.7-5.8-.1zM12.6 16.9c-2.4 2.6-1.4 5.1 1.9 5.1 2.9 0 4.3-2.5 2.8-4.8-1.5-2.4-2.8-2.5-4.7-.3z"/></symbol><symbol id="cd_8_1" viewBox="0 0 28.000000 28.000000"><path d="M0 14v14h28V0H0v14zM22 4c0 .5-.7 1-1.6 1-3.1 0-7.4 3.3-7.4 5.7 0 3.4 1.8 2.8 4.3-1.4 1.6-2.8 2.3-3.3 2.5-2 .2.9-.6 3.3-1.8 5.3l-2.2 3.5 2.2 2.1c2.9 2.7 1.5 3.9-4.9 4.6-6.2.6-7.7-1.5-4-5.4 1.6-1.7 2.3-3.5 2.1-5.7-.1-1.8.4-4 1.1-4.9C14.6 3.9 22 1.7 22 4zM11.7 18.4C9.2 20.3 9.6 21 13 21c3.2 0 3.8-1.1 1.7-2.8-.8-.7-1.7-.7-3 .2z"/></symbol><symbol id="cd_8_2" viewBox="0 0 28.000000 28.000000"><path d="M0 14v14h28V0H0v14zm21.6-7.4c1.9.9 3.4 2.2 3.4 2.9 0 1.8-3.5 4.6-5.1 4-.8-.2-2.1 0-2.9.5-1.3.9-1.3 1.2.3 2.1 4.2 2.5.1 8.9-5.8 8.9-5 0-6.4-3-3.4-7.2 2.1-2.9 2.1-3.2.5-4.4C6 11.6 7 8.7 11 6.8c4.3-2.2 6.3-2.2 10.6-.2zM12.3 8.2c-2.4 1.2-3 3.2-1.3 4.3 1.4.8 10.3-2.6 9.3-3.5-1.5-1.4-5.8-1.8-8-.8zM10.6 18.9C8.4 21.3 9.3 23 12.5 23c1.5 0 2.6-.7 3-2 1.3-4-1.9-5.4-4.9-2.1z"/></symbol><symbol id="cd_8_3" viewBox="0 0 28.000000 28.000000"><path d="M0 14v14h28V0H0v14zm19.7-8.3c.4.9-.1 2.9-.9 4.4-1.4 2.4-1.4 3-.2 4.6 2 2.7 1.7 6-.8 7.7-2.9 2.1-5.7 2-8-.1s-2.3-3.4.2-6.6l2-2.6-2-.6c-1.1-.3-2-1.1-2-1.7 0-1.6 4.3-4.7 6.8-4.8C16 6 17 5.5 17 5c0-1.6 2-1.1 2.7.7zM13.8 8.7c-1.9.5-2.4 1.8-.9 2.8.5.3 1.7-.2 2.5-1.1 2.5-2.4 2.2-2.7-1.6-1.7zM12.4 17.6c-1.2 1.7-1.4 2.8-.7 3.5 1.7 1.7 5.3-.8 5.3-3.6 0-3.3-2.5-3.2-4.6.1z"/></symbol><symbol id="cd_8_4" viewBox="0 0 28.000000 28.000000"><path d="M0 14v14h28V0H0v14zm18.4-9c1.9.7 2.6 1.7 2.6 3.7 0 3.1-3.5 7.3-6.1 7.3-3.3 0-4.7 1.1-4.2 3.1.5 1.7 1.3 2 5.2 1.7 3.3-.2 4.6-.7 4.6-1.8 0-.8-.6-1.4-1.3-1.2-.8.1-1.2-.3-1-1 .7-2.1 3.6-2.1 4.7.1 2.3 4.2-7 8.7-12.6 6.2-2.2-1-2.5-1.7-2.1-4.9.3-2.1-.1-4.6-.8-5.7-1.5-2.4-.4-4.4 4.1-6.8 3.6-1.9 3.7-2 6.9-.7zM12.5 7.7c-2.2.6-3.6 2.3-2.9 3.5 1 1.5 8.4.9 9.1-.8 1-2.6-1.7-3.8-6.2-2.7z"/></symbol><symbol id="cd_8_5" viewBox="0 0 28.000000 28.000000"><path d="M0 14v14h28V0H0v14zm23.1-8.4c1.2 1.4.8 2.2-3.3 5.8-3.9 3.4-4.6 4.5-4.1 6.8.4 2 0 3-2 4.3-3.1 2-7.1 1.6-7.5-.6-.2-.9 1-2.9 2.6-4.4 1.8-1.7 2.8-3.4 2.5-4.5-.7-2.5 1.2-5.6 4.5-7.3 3.7-2 5.7-2 7.3-.1zM17.3 7.6c-2.2 1-3.3 2.1-3.3 3.5 0 2 .1 2 3.1.2 2.9-1.7 4.7-3.9 3.8-4.7-.2-.2-1.9.3-3.6 1zM10.6 18.9c-1.1 1.2-1.7 2.3-1.4 2.6.8.9 4.1-2.1 3.7-3.4-.3-.9-1.1-.6-2.3.8z"/></symbol><symbol id="cd_9_0" viewBox="0 0 28.000000 28.000000"><path d="M0 14v14h28V0H0v14zm21-4.9c0 2.2-1.5 4.9-5.7 10C9.9 25.7 7 27.6 7 24.7c0-.8 1.2-2.4 2.6-3.8 1.4-1.3 3.5-3.6 4.6-5.2l2-2.8-4.1.7c-3.7.6-4.1.5-4.1-1.4C8 9.7 14 6.1 18.3 6c2.4 0 2.7.4 2.7 3.1zM13.8 9.6c-1.6.8-2.8 1.6-2.8 1.9 0 .7 6.3-1.4 7.4-2.5 1.5-1.5-1.4-1.2-4.6.6z"/></symbol><symbol id="cd_9_1" viewBox="0 0 28.000000 28.000000"><path d="M0 14v14h28V0H0v14zm17-7.2c0 .4-1.3 1.3-3 1.9-3.4 1.3-4.4 5-1 3.9 6.7-2.1 6.3-2.1 5.5 1.3-.4 1.7-1.3 4.5-2.2 6.1-.8 1.7-1.2 3.7-.9 4.5.3.8.1 1.5-.5 1.5-1.8 0-2.1-2.8-.6-5.7 3.2-6.3 3.1-6.9-1.3-6.5-4.9.5-5.4-1.6-1.4-5.3C14.2 6.1 17 5.2 17 6.8z"/></symbol><symbol id="cd_9_2" viewBox="0 0 28.000000 28.000000"><path d="M0 14v14h28V0H0v14zm21.5-7c.3.5.1 1.8-.4 2.7-1 1.7-1 1.7-1.1 0 0-2.8-3.3-2-7 1.8-2.8 2.9-3.2 3.8-2 4.5 2.1 1.3 4.6-.5 6.1-4.2 1.1-3 1.3-3.1 1.6-1 .5 2.6-5.2 15.2-6.8 15.2-1.1 0-1-.6.8-6.3.4-1.2 0-1.7-1.5-1.7-4.8 0-3.9-5.8 1.5-9.5 3.9-2.6 7.7-3.3 8.8-1.5z"/></symbol><symbol id="cd_9_3" viewBox="0 0 28.000000 28.000000"><path d="M0 14v14h28V0H0v14zm19.1-5.9c.8 1.6.8 3.2 0 6.3-.6 2.2-1 5.7-.8 7.6.1 2.6-.2 3.5-1.5 3.8-1.5.3-1.8-.4-1.8-3.7 0-4-.1-4.1-3.3-4.1-5.8 0-7.6-4.2-3.4-8.1 4.4-4.2 9-5 10.8-1.8zM11.8 10.8c-2.9 1.7-3.6 3.6-1.7 4.8 1.9 1.1 5.9-1.7 5.9-4.3 0-2.7-.6-2.8-4.2-.5z"/></symbol><symbol id="cd_9_4" viewBox="0 0 28.000000 28.000000"><path d="M0 14v14h28V0H0v14zm20-6.3c0 3.9-5.1 18.3-6.5 18.3-1.2 0-1.2-.6 0-4.1 2-5.6 2-5.7-1.7-5.5-4.7.2-5.1-3.4-.8-7.4 3.7-3.4 9-4.2 9-1.3zM13.2 10.6c-3 2.4-3.5 4.4-1.1 4.4 1.3 0 5.9-4.6 5.9-6 0-1.6-1.2-1.2-4.8 1.6z"/></symbol><symbol id="cd_9_5" viewBox="0 0 28.000000 28.000000"><path d="M0 14v14h28V0H0v14zm20.2-5.6c.9 2 .7 3.1-1.1 5.8-1.1 1.8-3 5.2-4.1 7.5-1.2 2.4-2.5 4.3-3 4.3-1.7 0-1.1-2.1 2.1-7.3 2.4-3.9 2.7-4.8 1.2-4.2-1 .4-2.8 1-4.1 1.3-2.1.4-2.3.1-2-2.4.2-1.9 1.4-3.6 3.7-5.1 4.3-2.9 5.9-2.9 7.3.1zM12.8 11c-1.9 1.6-2.7 3-1.9 3 1.8 0 8.1-3.9 8.1-5.1 0-1.8-3.1-.8-6.2 2.1z"/></symbol></svg>