<?xml version="1.0" standalone="no"?>
<!DOCTYPE svg PUBLIC "-//W3C//DTD SVG 20010904//EN"
 "http://www.w3.org/TR/2001/REC-SVG-20010904/DTD/svg10.dtd">
<svg version="1.0" xmlns="http://www.w3.org/2000/svg"
 width="28.000000pt" height="28.000000pt" viewBox="0 0 28.000000 28.000000"
 preserveAspectRatio="xMidYMid meet">
<metadata>
Created by potrace 1.11, written by Peter Selinger 2001-2013
</metadata>
<g transform="translate(0.000000,28.000000) scale(0.100000,-0.100000)"
fill="#000000" stroke="none">
<path d="M0 140 l0 -140 140 0 140 0 0 140 0 140 -140 0 -140 0 0 -140z m200
75 c8 -10 11 -33 8 -67 -5 -44 -11 -57 -42 -85 -38 -35 -83 -44 -93 -17 -10
28 16 91 51 122 19 17 32 32 29 35 -8 9 7 27 21 27 8 0 19 -7 26 -15z"/>
<path d="M131 154 c-11 -15 -18 -30 -15 -35 3 -5 1 -9 -4 -9 -14 0 -25 -51
-14 -62 13 -13 55 15 70 45 6 12 13 36 17 52 5 24 4 28 -6 18 -18 -18 -34 -16
-19 2 8 9 8 15 2 15 -6 0 -20 -12 -31 -26z"/>
</g>
</svg>
