<?xml version="1.0" standalone="no"?>
<!DOCTYPE svg PUBLIC "-//W3C//DTD SVG 20010904//EN"
 "http://www.w3.org/TR/2001/REC-SVG-20010904/DTD/svg10.dtd">
<svg version="1.0" xmlns="http://www.w3.org/2000/svg"
 width="28.000000pt" height="28.000000pt" viewBox="0 0 28.000000 28.000000"
 preserveAspectRatio="xMidYMid meet">
<metadata>
Created by potrace 1.11, written by Peter Selinger 2001-2013
</metadata>
<g transform="translate(0.000000,28.000000) scale(0.100000,-0.100000)"
fill="#000000" stroke="none">
<path d="M0 140 l0 -140 140 0 140 0 0 140 0 140 -140 0 -140 0 0 -140z m210
81 c5 -11 10 -41 10 -66 0 -40 -5 -52 -34 -81 -54 -54 -106 -43 -106 23 0 90
98 183 130 124z"/>
<path d="M151 211 c-8 -5 -11 -16 -8 -24 3 -9 0 -14 -10 -13 -19 1 -44 -64
-36 -93 4 -15 13 -21 33 -21 47 0 82 61 72 128 -4 33 -22 41 -51 23z"/>
</g>
</svg>
