<?xml version="1.0" standalone="no"?>
<!DOCTYPE svg PUBLIC "-//W3C//DTD SVG 20010904//EN"
 "http://www.w3.org/TR/2001/REC-SVG-20010904/DTD/svg10.dtd">
<svg version="1.0" xmlns="http://www.w3.org/2000/svg"
 width="28.000000pt" height="28.000000pt" viewBox="0 0 28.000000 28.000000"
 preserveAspectRatio="xMidYMid meet">
<metadata>
Created by potrace 1.11, written by Peter Selinger 2001-2013
</metadata>
<g transform="translate(0.000000,28.000000) scale(0.100000,-0.100000)"
fill="#000000" stroke="none">
<path d="M0 140 l0 -140 140 0 140 0 0 140 0 140 -140 0 -140 0 0 -140z m140
84 c0 -3 -13 -17 -30 -31 -22 -18 -30 -33 -30 -57 0 -40 15 -56 54 -56 33 0
96 52 96 80 0 32 -49 53 -76 33 -5 -5 -1 0 9 10 22 20 40 21 68 7 41 -23 8
-129 -47 -150 -40 -15 -89 -12 -107 8 -35 39 -30 99 13 142 18 18 50 28 50 14z"/>
</g>
</svg>
