<?xml version="1.0" standalone="no"?>
<!DOCTYPE svg PUBLIC "-//W3C//DTD SVG 20010904//EN"
 "http://www.w3.org/TR/2001/REC-SVG-20010904/DTD/svg10.dtd">
<svg version="1.0" xmlns="http://www.w3.org/2000/svg"
 width="28.000000pt" height="28.000000pt" viewBox="0 0 28.000000 28.000000"
 preserveAspectRatio="xMidYMid meet">
<metadata>
Created by potrace 1.11, written by Peter Selinger 2001-2013
</metadata>
<g transform="translate(0.000000,28.000000) scale(0.100000,-0.100000)"
fill="#000000" stroke="none">
<path d="M0 140 l0 -140 140 0 140 0 0 140 0 140 -140 0 -140 0 0 -140z m164
65 c3 -8 14 -15 25 -15 52 0 65 -102 18 -135 -49 -34 -167 -2 -167 46 0 36 23
69 70 102 30 21 46 22 54 2z"/>
<path d="M99 170 c-9 -5 -22 -23 -29 -40 -12 -28 -11 -33 10 -55 31 -33 92
-35 114 -3 33 46 10 96 -45 104 -19 2 -41 0 -50 -6z"/>
</g>
</svg>
