<?xml version="1.0" standalone="no"?>
<!DOCTYPE svg PUBLIC "-//W3C//DTD SVG 20010904//EN"
 "http://www.w3.org/TR/2001/REC-SVG-20010904/DTD/svg10.dtd">
<svg version="1.0" xmlns="http://www.w3.org/2000/svg"
 width="28.000000pt" height="28.000000pt" viewBox="0 0 28.000000 28.000000"
 preserveAspectRatio="xMidYMid meet">
<metadata>
Created by potrace 1.11, written by Peter Selinger 2001-2013
</metadata>
<g transform="translate(0.000000,28.000000) scale(0.100000,-0.100000)"
fill="#000000" stroke="none">
<path d="M0 140 l0 -140 140 0 140 0 0 140 0 140 -140 0 -140 0 0 -140z m223
40 c11 -62 -10 -112 -58 -134 -84 -40 -141 6 -100 82 25 45 101 104 129 100
16 -2 23 -13 29 -48z"/>
<path d="M116 154 c-29 -30 -36 -45 -34 -69 3 -28 6 -30 41 -29 53 2 77 27 77
81 0 23 -4 43 -9 43 -5 0 -16 3 -24 6 -9 3 -29 -10 -51 -32z"/>
</g>
</svg>
