<?xml version="1.0" standalone="no"?>
<!DOCTYPE svg PUBLIC "-//W3C//DTD SVG 20010904//EN"
 "http://www.w3.org/TR/2001/REC-SVG-20010904/DTD/svg10.dtd">
<svg version="1.0" xmlns="http://www.w3.org/2000/svg"
 width="28.000000pt" height="28.000000pt" viewBox="0 0 28.000000 28.000000"
 preserveAspectRatio="xMidYMid meet">
<metadata>
Created by potrace 1.11, written by Peter Selinger 2001-2013
</metadata>
<g transform="translate(0.000000,28.000000) scale(0.100000,-0.100000)"
fill="#000000" stroke="none">
<path d="M0 140 l0 -140 140 0 140 0 0 140 0 140 -140 0 -140 0 0 -140z m166
23 c-2 -38 -4 -83 -5 -100 -1 -24 -6 -33 -17 -33 -15 0 -16 9 -11 68 4 37 7
82 7 100 0 22 5 32 15 32 12 0 14 -13 11 -67z"/>
</g>
</svg>
