<?xml version="1.0" standalone="no"?>
<!DOCTYPE svg PUBLIC "-//W3C//DTD SVG 20010904//EN"
 "http://www.w3.org/TR/2001/REC-SVG-20010904/DTD/svg10.dtd">
<svg version="1.0" xmlns="http://www.w3.org/2000/svg"
 width="28.000000pt" height="28.000000pt" viewBox="0 0 28.000000 28.000000"
 preserveAspectRatio="xMidYMid meet">
<metadata>
Created by potrace 1.11, written by Peter Selinger 2001-2013
</metadata>
<g transform="translate(0.000000,28.000000) scale(0.100000,-0.100000)"
fill="#000000" stroke="none">
<path d="M0 140 l0 -140 140 0 140 0 0 140 0 140 -140 0 -140 0 0 -140z m175
76 c18 -13 18 -19 8 -57 -13 -50 -11 -53 51 -65 l41 -8 -33 -4 c-19 -2 -47 1
-62 7 -25 8 -30 7 -35 -9 -8 -24 -32 -32 -56 -20 -37 20 -15 60 32 60 21 0 29
7 38 31 6 17 8 35 5 40 -7 12 -51 11 -59 -1 -3 -5 -14 -10 -23 -10 -13 1 -10
6 11 25 32 28 55 31 82 11z"/>
<path d="M95 91 c-3 -5 -1 -12 5 -16 12 -7 30 2 30 16 0 12 -27 12 -35 0z"/>
</g>
</svg>
