<?xml version="1.0" standalone="no"?>
<!DOCTYPE svg PUBLIC "-//W3C//DTD SVG 20010904//EN"
 "http://www.w3.org/TR/2001/REC-SVG-20010904/DTD/svg10.dtd">
<svg version="1.0" xmlns="http://www.w3.org/2000/svg"
 width="28.000000pt" height="28.000000pt" viewBox="0 0 28.000000 28.000000"
 preserveAspectRatio="xMidYMid meet">
<metadata>
Created by potrace 1.11, written by Peter Selinger 2001-2013
</metadata>
<g transform="translate(0.000000,28.000000) scale(0.100000,-0.100000)"
fill="#000000" stroke="none">
<path d="M0 140 l0 -140 140 0 140 0 0 140 0 140 -140 0 -140 0 0 -140z m155
85 c30 -29 33 -77 6 -104 -19 -19 -19 -19 13 -25 37 -7 74 -31 64 -41 -3 -4
-15 -2 -26 4 -24 13 -75 15 -117 6 -28 -6 -27 -4 23 40 28 26 52 53 52 60 0 8
-10 26 -23 41 -19 22 -29 26 -50 20 -16 -4 -27 -13 -27 -23 0 -9 -3 -14 -6
-10 -10 10 6 46 24 50 34 9 43 7 67 -18z"/>
</g>
</svg>
