<?xml version="1.0" standalone="no"?>
<!DOCTYPE svg PUBLIC "-//W3C//DTD SVG 20010904//EN"
 "http://www.w3.org/TR/2001/REC-SVG-20010904/DTD/svg10.dtd">
<svg version="1.0" xmlns="http://www.w3.org/2000/svg"
 width="28.000000pt" height="28.000000pt" viewBox="0 0 28.000000 28.000000"
 preserveAspectRatio="xMidYMid meet">
<metadata>
Created by potrace 1.11, written by Peter Selinger 2001-2013
</metadata>
<g transform="translate(0.000000,28.000000) scale(0.100000,-0.100000)"
fill="#000000" stroke="none">
<path d="M0 140 l0 -140 140 0 140 0 0 140 0 140 -140 0 -140 0 0 -140z m188
88 c20 -20 14 -39 -29 -100 -22 -32 -37 -58 -32 -59 4 -1 26 0 48 0 38 1 39 1
21 -14 -25 -19 -126 -21 -126 -2 0 6 16 27 34 45 34 33 72 99 63 109 -3 2 -14
0 -25 -6 -12 -6 -29 -11 -39 -11 -14 1 -12 6 12 25 33 27 55 31 73 13z"/>
</g>
</svg>
