<?xml version="1.0" standalone="no"?>
<!DOCTYPE svg PUBLIC "-//W3C//DTD SVG 20010904//EN"
 "http://www.w3.org/TR/2001/REC-SVG-20010904/DTD/svg10.dtd">
<svg version="1.0" xmlns="http://www.w3.org/2000/svg"
 width="28.000000pt" height="28.000000pt" viewBox="0 0 28.000000 28.000000"
 preserveAspectRatio="xMidYMid meet">
<metadata>
Created by potrace 1.11, written by Peter Selinger 2001-2013
</metadata>
<g transform="translate(0.000000,28.000000) scale(0.100000,-0.100000)"
fill="#000000" stroke="none">
<path d="M0 140 l0 -140 140 0 140 0 0 140 0 140 -140 0 -140 0 0 -140z m194
74 c24 -9 21 -71 -3 -79 -10 -3 -27 -15 -37 -26 l-19 -21 58 7 c67 9 76 -5 14
-23 -49 -15 -149 -12 -154 3 -1 6 24 27 57 49 33 21 60 42 60 47 0 13 -47 11
-72 -2 -14 -7 -23 -8 -30 -1 -7 7 0 17 23 31 34 21 73 26 103 15z"/>
</g>
</svg>
