<?xml version="1.0" standalone="no"?>
<!DOCTYPE svg PUBLIC "-//W3C//DTD SVG 20010904//EN"
 "http://www.w3.org/TR/2001/REC-SVG-20010904/DTD/svg10.dtd">
<svg version="1.0" xmlns="http://www.w3.org/2000/svg"
 width="28.000000pt" height="28.000000pt" viewBox="0 0 28.000000 28.000000"
 preserveAspectRatio="xMidYMid meet">
<metadata>
Created by potrace 1.11, written by Peter Selinger 2001-2013
</metadata>
<g transform="translate(0.000000,28.000000) scale(0.100000,-0.100000)"
fill="#000000" stroke="none">
<path d="M0 140 l0 -140 140 0 140 0 0 140 0 140 -140 0 -140 0 0 -140z m188
47 c2 -25 -4 -49 -18 -72 -17 -28 -19 -38 -10 -55 15 -28 5 -38 -11 -11 -9 14
-20 19 -35 15 -12 -3 -25 0 -29 6 -11 17 25 51 47 44 14 -4 22 2 32 27 26 62
-4 92 -43 42 -12 -14 -25 -23 -29 -19 -11 11 57 68 76 64 12 -2 18 -15 20 -41z"/>
<path d="M100 85 c0 -9 6 -12 15 -9 8 4 15 10 15 15 0 5 -7 9 -15 9 -8 0 -15
-7 -15 -15z"/>
</g>
</svg>
