<?xml version="1.0" standalone="no"?>
<!DOCTYPE svg PUBLIC "-//W3C//DTD SVG 20010904//EN"
 "http://www.w3.org/TR/2001/REC-SVG-20010904/DTD/svg10.dtd">
<svg version="1.0" xmlns="http://www.w3.org/2000/svg"
 width="28.000000pt" height="28.000000pt" viewBox="0 0 28.000000 28.000000"
 preserveAspectRatio="xMidYMid meet">
<metadata>
Created by potrace 1.11, written by Peter Selinger 2001-2013
</metadata>
<g transform="translate(0.000000,28.000000) scale(0.100000,-0.100000)"
fill="#000000" stroke="none">
<path d="M0 140 l0 -140 140 0 140 0 0 140 0 140 -140 0 -140 0 0 -140z m165
86 c12 -8 16 -19 11 -31 -3 -10 -1 -24 5 -31 14 -17 6 -88 -11 -109 -26 -32
-100 -10 -99 28 l0 22 9 -23 c7 -16 18 -22 39 -22 34 0 51 22 51 68 0 36 -8
44 -32 31 -30 -16 -33 -3 -4 22 26 22 26 45 0 35 -8 -3 -14 1 -14 9 0 19 20
19 45 1z"/>
</g>
</svg>
