<?xml version="1.0" standalone="no"?>
<!DOCTYPE svg PUBLIC "-//W3C//DTD SVG 20010904//EN"
 "http://www.w3.org/TR/2001/REC-SVG-20010904/DTD/svg10.dtd">
<svg version="1.0" xmlns="http://www.w3.org/2000/svg"
 width="28.000000pt" height="28.000000pt" viewBox="0 0 28.000000 28.000000"
 preserveAspectRatio="xMidYMid meet">
<metadata>
Created by potrace 1.11, written by Peter Selinger 2001-2013
</metadata>
<g transform="translate(0.000000,28.000000) scale(0.100000,-0.100000)"
fill="#000000" stroke="none">
<path d="M0 140 l0 -140 140 0 140 0 0 140 0 140 -140 0 -140 0 0 -140z m198
84 c22 -15 22 -17 7 -41 -15 -23 -15 -26 0 -43 22 -25 13 -64 -20 -86 -18 -12
-39 -15 -70 -12 -53 6 -75 22 -75 54 0 30 20 42 27 15 6 -24 41 -36 79 -27 37
10 28 40 -15 46 -48 7 -49 26 -4 46 l38 18 -30 4 c-30 4 -48 19 -39 34 9 14
79 9 102 -8z"/>
</g>
</svg>
