<?xml version="1.0" standalone="no"?>
<!DOCTYPE svg PUBLIC "-//W3C//DTD SVG 20010904//EN"
 "http://www.w3.org/TR/2001/REC-SVG-20010904/DTD/svg10.dtd">
<svg version="1.0" xmlns="http://www.w3.org/2000/svg"
 width="28.000000pt" height="28.000000pt" viewBox="0 0 28.000000 28.000000"
 preserveAspectRatio="xMidYMid meet">
<metadata>
Created by potrace 1.11, written by Peter Selinger 2001-2013
</metadata>
<g transform="translate(0.000000,28.000000) scale(0.100000,-0.100000)"
fill="#000000" stroke="none">
<path d="M0 140 l0 -140 140 0 140 0 0 140 0 140 -140 0 -140 0 0 -140z m161
70 c23 -13 26 -62 5 -80 -12 -9 -13 -17 -4 -36 15 -31 -6 -74 -36 -74 -20 0
-20 0 2 16 27 19 28 45 2 69 -20 18 -20 18 2 29 15 7 23 21 23 36 0 22 -4 25
-32 24 -32 -2 -41 5 -26 19 10 10 42 8 64 -3z"/>
</g>
</svg>
