<?xml version="1.0" standalone="no"?>
<!DOCTYPE svg PUBLIC "-//W3C//DTD SVG 20010904//EN"
 "http://www.w3.org/TR/2001/REC-SVG-20010904/DTD/svg10.dtd">
<svg version="1.0" xmlns="http://www.w3.org/2000/svg"
 width="28.000000pt" height="28.000000pt" viewBox="0 0 28.000000 28.000000"
 preserveAspectRatio="xMidYMid meet">
<metadata>
Created by potrace 1.11, written by Peter Selinger 2001-2013
</metadata>
<g transform="translate(0.000000,28.000000) scale(0.100000,-0.100000)"
fill="#000000" stroke="none">
<path d="M0 140 l0 -140 140 0 140 0 0 140 0 140 -140 0 -140 0 0 -140z m178
78 c9 -9 8 -16 -5 -30 -14 -15 -14 -22 -3 -42 18 -35 6 -67 -35 -95 -53 -36
-56 -16 -5 28 45 39 45 39 26 60 -16 18 -17 25 -8 46 13 29 6 32 -26 9 -28
-20 -28 -11 0 16 25 23 39 25 56 8z"/>
</g>
</svg>
