<?xml version="1.0" standalone="no"?>
<!DOCTYPE svg PUBLIC "-//W3C//DTD SVG 20010904//EN"
 "http://www.w3.org/TR/2001/REC-SVG-20010904/DTD/svg10.dtd">
<svg version="1.0" xmlns="http://www.w3.org/2000/svg"
 width="28.000000pt" height="28.000000pt" viewBox="0 0 28.000000 28.000000"
 preserveAspectRatio="xMidYMid meet">
<metadata>
Created by potrace 1.11, written by Peter Selinger 2001-2013
</metadata>
<g transform="translate(0.000000,28.000000) scale(0.100000,-0.100000)"
fill="#000000" stroke="none">
<path d="M0 140 l0 -140 140 0 140 0 0 140 0 140 -140 0 -140 0 0 -140z m181
69 c-3 -8 -4 -31 -2 -53 2 -41 -17 -79 -53 -108 -26 -21 -56 -23 -56 -4 0 20
17 29 23 14 6 -18 53 27 66 63 11 31 1 45 -24 35 -8 -3 -17 -1 -20 4 -3 5 3
11 14 15 11 3 22 13 26 23 5 14 4 15 -6 5 -7 -7 -20 -13 -28 -13 -12 1 -9 6 8
21 27 22 58 21 52 -2z"/>
</g>
</svg>
