<?xml version="1.0" standalone="no"?>
<!DOCTYPE svg PUBLIC "-//W3C//DTD SVG 20010904//EN"
 "http://www.w3.org/TR/2001/REC-SVG-20010904/DTD/svg10.dtd">
<svg version="1.0" xmlns="http://www.w3.org/2000/svg"
 width="28.000000pt" height="28.000000pt" viewBox="0 0 28.000000 28.000000"
 preserveAspectRatio="xMidYMid meet">
<metadata>
Created by potrace 1.11, written by Peter Selinger 2001-2013
</metadata>
<g transform="translate(0.000000,28.000000) scale(0.100000,-0.100000)"
fill="#000000" stroke="none">
<path d="M0 140 l0 -140 140 0 140 0 0 140 0 140 -140 0 -140 0 0 -140z m245
80 c3 -5 -1 -10 -9 -10 -9 0 -23 -17 -32 -40 -20 -50 -20 -54 8 -62 20 -5 19
-6 -8 -7 -31 -1 -51 -22 -38 -42 3 -5 -2 -9 -10 -9 -9 0 -16 8 -16 18 0 13
-12 21 -42 28 -23 5 -43 14 -45 20 -5 15 46 76 58 68 5 -3 2 -18 -6 -35 -15
-29 -15 -29 14 -29 26 0 32 6 55 55 18 40 30 55 45 55 11 0 23 -4 26 -10z"/>
</g>
</svg>
