<?xml version="1.0" standalone="no"?>
<!DOCTYPE svg PUBLIC "-//W3C//DTD SVG 20010904//EN"
 "http://www.w3.org/TR/2001/REC-SVG-20010904/DTD/svg10.dtd">
<svg version="1.0" xmlns="http://www.w3.org/2000/svg"
 width="28.000000pt" height="28.000000pt" viewBox="0 0 28.000000 28.000000"
 preserveAspectRatio="xMidYMid meet">
<metadata>
Created by potrace 1.11, written by Peter Selinger 2001-2013
</metadata>
<g transform="translate(0.000000,28.000000) scale(0.100000,-0.100000)"
fill="#000000" stroke="none">
<path d="M0 140 l0 -140 140 0 140 0 0 140 0 140 -140 0 -140 0 0 -140z m184
84 c3 -9 6 -33 6 -54 0 -33 4 -39 27 -45 26 -6 26 -8 10 -19 -9 -7 -17 -25
-17 -40 0 -19 -5 -26 -20 -26 -15 0 -20 7 -20 29 0 29 -2 30 -52 33 l-53 3 -3
58 c-2 44 0 57 11 57 18 0 27 -21 27 -61 0 -26 4 -29 30 -29 30 0 30 1 30 55
0 53 11 72 24 39z"/>
</g>
</svg>
