<?xml version="1.0" standalone="no"?>
<!DOCTYPE svg PUBLIC "-//W3C//DTD SVG 20010904//EN"
 "http://www.w3.org/TR/2001/REC-SVG-20010904/DTD/svg10.dtd">
<svg version="1.0" xmlns="http://www.w3.org/2000/svg"
 width="28.000000pt" height="28.000000pt" viewBox="0 0 28.000000 28.000000"
 preserveAspectRatio="xMidYMid meet">
<metadata>
Created by potrace 1.11, written by Peter Selinger 2001-2013
</metadata>
<g transform="translate(0.000000,28.000000) scale(0.100000,-0.100000)"
fill="#000000" stroke="none">
<path d="M0 140 l0 -140 140 0 140 0 0 140 0 140 -140 0 -140 0 0 -140z m120
44 c0 -29 3 -35 16 -30 9 3 19 6 24 6 4 0 13 14 19 30 9 27 31 42 31 21 0 -8
-21 -82 -40 -145 -5 -16 -7 -33 -4 -37 3 -5 -4 -9 -16 -9 -20 0 -21 4 -15 43
4 23 12 48 17 54 8 10 1 12 -28 10 -39 -2 -39 -2 -36 33 3 44 9 60 22 60 5 0
10 -16 10 -36z"/>
</g>
</svg>
