<?xml version="1.0" standalone="no"?>
<!DOCTYPE svg PUBLIC "-//W3C//DTD SVG 20010904//EN"
 "http://www.w3.org/TR/2001/REC-SVG-20010904/DTD/svg10.dtd">
<svg version="1.0" xmlns="http://www.w3.org/2000/svg"
 width="28.000000pt" height="28.000000pt" viewBox="0 0 28.000000 28.000000"
 preserveAspectRatio="xMidYMid meet">
<metadata>
Created by potrace 1.11, written by Peter Selinger 2001-2013
</metadata>
<g transform="translate(0.000000,28.000000) scale(0.100000,-0.100000)"
fill="#000000" stroke="none">
<path d="M0 140 l0 -140 140 0 140 0 0 140 0 140 -140 0 -140 0 0 -140z m185
35 c-22 -81 -46 -145 -55 -145 -5 0 -3 19 5 41 19 54 20 52 -15 46 -16 -4 -32
-3 -34 2 -8 12 14 71 25 71 12 0 11 -7 -1 -30 -7 -13 -7 -21 0 -25 21 -13 49
7 61 43 23 73 34 71 14 -3z"/>
</g>
</svg>
