<?xml version="1.0" standalone="no"?>
<!DOCTYPE svg PUBLIC "-//W3C//DTD SVG 20010904//EN"
 "http://www.w3.org/TR/2001/REC-SVG-20010904/DTD/svg10.dtd">
<svg version="1.0" xmlns="http://www.w3.org/2000/svg"
 width="28.000000pt" height="28.000000pt" viewBox="0 0 28.000000 28.000000"
 preserveAspectRatio="xMidYMid meet">
<metadata>
Created by potrace 1.11, written by Peter Selinger 2001-2013
</metadata>
<g transform="translate(0.000000,28.000000) scale(0.100000,-0.100000)"
fill="#000000" stroke="none">
<path d="M0 140 l0 -140 140 0 140 0 0 140 0 140 -140 0 -140 0 0 -140z m206
53 c-8 -60 -40 -146 -56 -151 -13 -5 -11 24 5 61 6 13 2 17 -16 17 -13 0 -38
-4 -56 -9 -50 -15 -49 -8 15 85 12 18 12 17 9 -6 -3 -14 -8 -33 -12 -42 -6
-15 -2 -17 30 -14 42 3 52 15 61 69 10 56 28 46 20 -10z"/>
</g>
</svg>
