<?xml version="1.0" standalone="no"?>
<!DOCTYPE svg PUBLIC "-//W3C//DTD SVG 20010904//EN"
 "http://www.w3.org/TR/2001/REC-SVG-20010904/DTD/svg10.dtd">
<svg version="1.0" xmlns="http://www.w3.org/2000/svg"
 width="28.000000pt" height="28.000000pt" viewBox="0 0 28.000000 28.000000"
 preserveAspectRatio="xMidYMid meet">
<metadata>
Created by potrace 1.11, written by Peter Selinger 2001-2013
</metadata>
<g transform="translate(0.000000,28.000000) scale(0.100000,-0.100000)"
fill="#000000" stroke="none">
<path d="M0 140 l0 -140 140 0 140 0 0 140 0 140 -140 0 -140 0 0 -140z m160
75 c0 -3 -7 -16 -15 -29 -14 -22 -14 -24 2 -30 12 -5 26 4 48 30 18 21 34 33
38 27 7 -11 -128 -193 -144 -193 -14 0 -11 16 5 30 8 6 24 27 35 46 18 30 19
35 5 41 -8 3 -26 1 -40 -6 -32 -14 -34 -14 -34 3 0 7 12 22 28 32 15 9 33 26
40 36 12 17 32 25 32 13z"/>
</g>
</svg>
