<?xml version="1.0" standalone="no"?>
<!DOCTYPE svg PUBLIC "-//W3C//DTD SVG 20010904//EN"
 "http://www.w3.org/TR/2001/REC-SVG-20010904/DTD/svg10.dtd">
<svg version="1.0" xmlns="http://www.w3.org/2000/svg"
 width="28.000000pt" height="28.000000pt" viewBox="0 0 28.000000 28.000000"
 preserveAspectRatio="xMidYMid meet">
<metadata>
Created by potrace 1.11, written by Peter Selinger 2001-2013
</metadata>
<g transform="translate(0.000000,28.000000) scale(0.100000,-0.100000)"
fill="#000000" stroke="none">
<path d="M0 140 l0 -140 140 0 140 0 0 140 0 140 -140 0 -140 0 0 -140z m208
77 c2 -11 -9 -19 -37 -27 -48 -13 -53 -35 -16 -70 27 -26 32 -49 13 -68 -15
-15 -61 -15 -76 0 -19 19 -14 27 21 30 37 3 43 21 9 26 -32 5 -37 27 -17 71
12 27 26 42 48 49 39 12 51 10 55 -11z"/>
</g>
</svg>
