<?xml version="1.0" standalone="no"?>
<!DOCTYPE svg PUBLIC "-//W3C//DTD SVG 20010904//EN"
 "http://www.w3.org/TR/2001/REC-SVG-20010904/DTD/svg10.dtd">
<svg version="1.0" xmlns="http://www.w3.org/2000/svg"
 width="28.000000pt" height="28.000000pt" viewBox="0 0 28.000000 28.000000"
 preserveAspectRatio="xMidYMid meet">
<metadata>
Created by potrace 1.11, written by Peter Selinger 2001-2013
</metadata>
<g transform="translate(0.000000,28.000000) scale(0.100000,-0.100000)"
fill="#000000" stroke="none">
<path d="M0 140 l0 -140 140 0 140 0 0 140 0 140 -140 0 -140 0 0 -140z m243
51 c4 -1 7 -6 7 -12 0 -7 -9 -9 -24 -5 -14 3 -41 -2 -66 -13 l-42 -19 25 -17
c29 -19 42 -44 28 -58 -5 -5 -33 -7 -66 -2 -66 8 -66 20 0 16 50 -3 57 9 20
33 -30 20 -31 26 -6 57 16 21 27 24 67 23 27 -1 52 -3 57 -3z"/>
</g>
</svg>
