<?xml version="1.0" standalone="no"?>
<!DOCTYPE svg PUBLIC "-//W3C//DTD SVG 20010904//EN"
 "http://www.w3.org/TR/2001/REC-SVG-20010904/DTD/svg10.dtd">
<svg version="1.0" xmlns="http://www.w3.org/2000/svg"
 width="28.000000pt" height="28.000000pt" viewBox="0 0 28.000000 28.000000"
 preserveAspectRatio="xMidYMid meet">
<metadata>
Created by potrace 1.11, written by Peter Selinger 2001-2013
</metadata>
<g transform="translate(0.000000,28.000000) scale(0.100000,-0.100000)"
fill="#000000" stroke="none">
<path d="M0 140 l0 -140 140 0 140 0 0 140 0 140 -140 0 -140 0 0 -140z m218
73 c2 -9 -9 -13 -36 -13 -22 0 -45 -6 -52 -15 -9 -11 -5 -20 23 -45 19 -16 37
-39 40 -49 7 -26 -20 -63 -41 -57 -10 3 -36 10 -59 16 -24 6 -43 17 -43 24 0
12 9 11 50 -2 39 -12 53 -13 62 -4 17 17 0 43 -40 62 -45 21 -40 75 8 93 25
10 83 3 88 -10z"/>
</g>
</svg>
