<?xml version="1.0" standalone="no"?>
<!DOCTYPE svg PUBLIC "-//W3C//DTD SVG 20010904//EN"
 "http://www.w3.org/TR/2001/REC-SVG-20010904/DTD/svg10.dtd">
<svg version="1.0" xmlns="http://www.w3.org/2000/svg"
 width="28.000000pt" height="28.000000pt" viewBox="0 0 28.000000 28.000000"
 preserveAspectRatio="xMidYMid meet">
<metadata>
Created by potrace 1.11, written by Peter Selinger 2001-2013
</metadata>
<g transform="translate(0.000000,28.000000) scale(0.100000,-0.100000)"
fill="#000000" stroke="none">
<path d="M0 140 l0 -140 140 0 140 0 0 140 0 140 -140 0 -140 0 0 -140z m183
87 c24 4 37 2 37 -6 0 -6 -12 -11 -27 -11 -34 0 -48 -9 -57 -35 -5 -16 0 -23
24 -32 26 -10 30 -17 30 -47 0 -37 -20 -56 -59 -56 -24 0 -51 25 -51 48 0 13
3 12 16 -6 19 -27 60 -29 74 -3 16 31 2 51 -36 51 -32 0 -34 2 -24 21 6 11 11
32 10 47 -3 41 -1 45 13 34 8 -7 29 -9 50 -5z"/>
</g>
</svg>
