<?xml version="1.0" standalone="no"?>
<!DOCTYPE svg PUBLIC "-//W3C//DTD SVG 20010904//EN"
 "http://www.w3.org/TR/2001/REC-SVG-20010904/DTD/svg10.dtd">
<svg version="1.0" xmlns="http://www.w3.org/2000/svg"
 width="28.000000pt" height="28.000000pt" viewBox="0 0 28.000000 28.000000"
 preserveAspectRatio="xMidYMid meet">
<metadata>
Created by potrace 1.11, written by Peter Selinger 2001-2013
</metadata>
<g transform="translate(0.000000,28.000000) scale(0.100000,-0.100000)"
fill="#000000" stroke="none">
<path d="M0 140 l0 -140 140 0 140 0 0 140 0 140 -140 0 -140 0 0 -140z m221
70 c19 0 29 -5 29 -15 0 -15 -34 -28 -66 -25 -34 4 -37 0 -19 -21 18 -19 18
-21 1 -54 -39 -72 -97 -98 -104 -46 -3 21 -1 23 22 17 19 -5 29 -1 40 16 19
27 21 49 4 47 -27 -3 -38 1 -38 15 0 20 72 77 88 71 8 -3 27 -5 43 -5z"/>
</g>
</svg>
