<?xml version="1.0" standalone="no"?>
<!DOCTYPE svg PUBLIC "-//W3C//DTD SVG 20010904//EN"
 "http://www.w3.org/TR/2001/REC-SVG-20010904/DTD/svg10.dtd">
<svg version="1.0" xmlns="http://www.w3.org/2000/svg"
 width="28.000000pt" height="28.000000pt" viewBox="0 0 28.000000 28.000000"
 preserveAspectRatio="xMidYMid meet">
<metadata>
Created by potrace 1.11, written by Peter Selinger 2001-2013
</metadata>
<g transform="translate(0.000000,28.000000) scale(0.100000,-0.100000)"
fill="#000000" stroke="none">
<path d="M0 140 l0 -140 140 0 140 0 0 140 0 140 -140 0 -140 0 0 -140z m141
46 c-24 -45 -32 -95 -16 -95 6 -1 10 6 10 14 0 25 33 55 60 55 34 0 33 -29 -3
-63 -35 -34 -83 -45 -101 -23 -17 21 -8 96 13 112 9 6 16 15 16 20 0 5 8 21
17 34 16 22 18 23 21 6 2 -10 -6 -37 -17 -60z"/>
</g>
</svg>
