<?xml version="1.0" standalone="no"?>
<!DOCTYPE svg PUBLIC "-//W3C//DTD SVG 20010904//EN"
 "http://www.w3.org/TR/2001/REC-SVG-20010904/DTD/svg10.dtd">
<svg version="1.0" xmlns="http://www.w3.org/2000/svg"
 width="28.000000pt" height="28.000000pt" viewBox="0 0 28.000000 28.000000"
 preserveAspectRatio="xMidYMid meet">
<metadata>
Created by potrace 1.11, written by Peter Selinger 2001-2013
</metadata>
<g transform="translate(0.000000,28.000000) scale(0.100000,-0.100000)"
fill="#000000" stroke="none">
<path d="M0 140 l0 -140 140 0 140 0 0 140 0 140 -140 0 -140 0 0 -140z m190
108 c0 -7 -18 -38 -40 -69 -22 -32 -40 -60 -40 -62 0 -3 20 6 45 19 24 14 49
23 55 19 18 -11 11 -42 -16 -69 -21 -20 -37 -26 -70 -26 -41 0 -44 2 -44 26 0
15 20 54 45 91 25 35 45 68 45 73 0 6 5 10 10 10 6 0 10 -5 10 -12z"/>
<path d="M150 111 c-36 -30 -37 -48 -3 -37 23 7 63 43 63 56 0 18 -26 10 -60
-19z"/>
</g>
</svg>
