<?xml version="1.0" standalone="no"?>
<!DOCTYPE svg PUBLIC "-//W3C//DTD SVG 20010904//EN"
 "http://www.w3.org/TR/2001/REC-SVG-20010904/DTD/svg10.dtd">
<svg version="1.0" xmlns="http://www.w3.org/2000/svg"
 width="28.000000pt" height="28.000000pt" viewBox="0 0 28.000000 28.000000"
 preserveAspectRatio="xMidYMid meet">
<metadata>
Created by potrace 1.11, written by Peter Selinger 2001-2013
</metadata>
<g transform="translate(0.000000,28.000000) scale(0.100000,-0.100000)"
fill="#000000" stroke="none">
<path d="M0 140 l0 -140 140 0 140 0 0 140 0 140 -140 0 -140 0 0 -140z m200
100 c0 -5 -6 -10 -13 -10 -7 0 -23 -18 -35 -39 -22 -38 -22 -40 -3 -46 26 -8
34 -45 15 -73 -19 -29 -46 -25 -58 10 -11 30 11 99 45 142 20 26 49 35 49 16z"/>
<path d="M130 98 c0 -30 1 -31 16 -16 9 9 14 24 11 32 -11 27 -27 17 -27 -16z"/>
</g>
</svg>
