<?xml version="1.0" standalone="no"?>
<!DOCTYPE svg PUBLIC "-//W3C//DTD SVG 20010904//EN"
 "http://www.w3.org/TR/2001/REC-SVG-20010904/DTD/svg10.dtd">
<svg version="1.0" xmlns="http://www.w3.org/2000/svg"
 width="28.000000pt" height="28.000000pt" viewBox="0 0 28.000000 28.000000"
 preserveAspectRatio="xMidYMid meet">
<metadata>
Created by potrace 1.11, written by Peter Selinger 2001-2013
</metadata>
<g transform="translate(0.000000,28.000000) scale(0.100000,-0.100000)"
fill="#000000" stroke="none">
<path d="M0 140 l0 -140 140 0 140 0 0 140 0 140 -140 0 -140 0 0 -140z m160
99 c0 -6 -11 -25 -25 -43 -14 -18 -25 -43 -25 -56 0 -26 26 -60 45 -60 18 0
38 27 26 34 -5 4 -14 -2 -20 -11 -9 -17 -10 -17 -16 0 -17 43 27 64 59 28 23
-26 13 -56 -23 -71 -34 -14 -61 -3 -85 32 -23 33 -20 65 12 114 25 41 52 58
52 33z"/>
</g>
</svg>
