<?xml version="1.0" standalone="no"?>
<!DOCTYPE svg PUBLIC "-//W3C//DTD SVG 20010904//EN"
 "http://www.w3.org/TR/2001/REC-SVG-20010904/DTD/svg10.dtd">
<svg version="1.0" xmlns="http://www.w3.org/2000/svg"
 width="28.000000pt" height="28.000000pt" viewBox="0 0 28.000000 28.000000"
 preserveAspectRatio="xMidYMid meet">
<metadata>
Created by potrace 1.11, written by Peter Selinger 2001-2013
</metadata>
<g transform="translate(0.000000,28.000000) scale(0.100000,-0.100000)"
fill="#000000" stroke="none">
<path d="M0 140 l0 -140 140 0 140 0 0 140 0 140 -140 0 -140 0 0 -140z m136
60 c32 -5 64 -16 72 -24 17 -17 8 -37 -47 -106 -19 -25 -36 -47 -38 -49 -1 -1
-7 -1 -13 1 -6 2 12 34 41 72 55 73 55 85 -6 86 -42 0 -105 19 -105 31 0 6 9
8 19 4 11 -3 45 -10 77 -15z"/>
</g>
</svg>
