<?xml version="1.0" standalone="no"?>
<!DOCTYPE svg PUBLIC "-//W3C//DTD SVG 20010904//EN"
 "http://www.w3.org/TR/2001/REC-SVG-20010904/DTD/svg10.dtd">
<svg version="1.0" xmlns="http://www.w3.org/2000/svg"
 width="28.000000pt" height="28.000000pt" viewBox="0 0 28.000000 28.000000"
 preserveAspectRatio="xMidYMid meet">
<metadata>
Created by potrace 1.11, written by Peter Selinger 2001-2013
</metadata>
<g transform="translate(0.000000,28.000000) scale(0.100000,-0.100000)"
fill="#000000" stroke="none">
<path d="M0 140 l0 -140 140 0 140 0 0 140 0 140 -140 0 -140 0 0 -140z m191
60 c18 -10 18 -12 3 -43 -13 -24 -65 -109 -91 -146 -2 -2 -6 -2 -9 2 -6 6 36
84 68 126 10 13 18 30 18 37 0 23 -28 16 -46 -11 -20 -30 -34 -32 -34 -6 0 11
12 26 28 34 34 19 39 19 63 7z"/>
</g>
</svg>
