<?xml version="1.0" standalone="no"?>
<!DOCTYPE svg PUBLIC "-//W3C//DTD SVG 20010904//EN"
 "http://www.w3.org/TR/2001/REC-SVG-20010904/DTD/svg10.dtd">
<svg version="1.0" xmlns="http://www.w3.org/2000/svg"
 width="28.000000pt" height="28.000000pt" viewBox="0 0 28.000000 28.000000"
 preserveAspectRatio="xMidYMid meet">
<metadata>
Created by potrace 1.11, written by Peter Selinger 2001-2013
</metadata>
<g transform="translate(0.000000,28.000000) scale(0.100000,-0.100000)"
fill="#000000" stroke="none">
<path d="M0 140 l0 -140 140 0 140 0 0 140 0 140 -140 0 -140 0 0 -140z m200
63 c9 -8 11 -16 5 -21 -31 -22 -35 -39 -19 -71 15 -31 15 -33 -6 -56 -25 -27
-54 -23 -76 11 -12 17 -13 27 -5 43 9 16 8 22 -6 29 -14 9 -15 14 -3 41 7 17
20 36 29 41 19 11 61 3 81 -17z"/>
<path d="M122 188 c-19 -19 -14 -38 11 -38 25 0 47 17 47 37 0 16 -42 17 -58
1z"/>
<path d="M126 111 c-24 -26 -14 -51 19 -51 29 0 43 25 28 48 -15 24 -28 25
-47 3z"/>
</g>
</svg>
