<?xml version="1.0" standalone="no"?>
<!DOCTYPE svg PUBLIC "-//W3C//DTD SVG 20010904//EN"
 "http://www.w3.org/TR/2001/REC-SVG-20010904/DTD/svg10.dtd">
<svg version="1.0" xmlns="http://www.w3.org/2000/svg"
 width="28.000000pt" height="28.000000pt" viewBox="0 0 28.000000 28.000000"
 preserveAspectRatio="xMidYMid meet">
<metadata>
Created by potrace 1.11, written by Peter Selinger 2001-2013
</metadata>
<g transform="translate(0.000000,28.000000) scale(0.100000,-0.100000)"
fill="#000000" stroke="none">
<path d="M0 140 l0 -140 140 0 140 0 0 140 0 140 -140 0 -140 0 0 -140z m220
100 c0 -5 -7 -10 -16 -10 -31 0 -74 -33 -74 -57 0 -34 18 -28 43 14 16 28 23
33 25 20 2 -9 -6 -33 -18 -53 l-22 -35 22 -21 c29 -27 15 -39 -49 -46 -62 -6
-77 15 -40 54 16 17 23 35 21 57 -1 18 4 40 11 49 23 29 97 51 97 28z"/>
<path d="M117 96 c-25 -19 -21 -26 13 -26 32 0 38 11 17 28 -8 7 -17 7 -30 -2z"/>
</g>
</svg>
