<?xml version="1.0" standalone="no"?>
<!DOCTYPE svg PUBLIC "-//W3C//DTD SVG 20010904//EN"
 "http://www.w3.org/TR/2001/REC-SVG-20010904/DTD/svg10.dtd">
<svg version="1.0" xmlns="http://www.w3.org/2000/svg"
 width="28.000000pt" height="28.000000pt" viewBox="0 0 28.000000 28.000000"
 preserveAspectRatio="xMidYMid meet">
<metadata>
Created by potrace 1.11, written by Peter Selinger 2001-2013
</metadata>
<g transform="translate(0.000000,28.000000) scale(0.100000,-0.100000)"
fill="#000000" stroke="none">
<path d="M0 140 l0 -140 140 0 140 0 0 140 0 140 -140 0 -140 0 0 -140z m197
83 c4 -9 -1 -29 -9 -44 -14 -24 -14 -30 -2 -46 20 -27 17 -60 -8 -77 -29 -21
-57 -20 -80 1 -23 21 -23 34 2 66 l20 26 -20 6 c-11 3 -20 11 -20 17 0 16 43
47 68 48 12 0 22 5 22 10 0 16 20 11 27 -7z"/>
<path d="M138 193 c-19 -5 -24 -18 -9 -28 5 -3 17 2 25 11 25 24 22 27 -16 17z"/>
<path d="M124 104 c-12 -17 -14 -28 -7 -35 17 -17 53 8 53 36 0 33 -25 32 -46
-1z"/>
</g>
</svg>
