<?xml version="1.0" standalone="no"?>
<!DOCTYPE svg PUBLIC "-//W3C//DTD SVG 20010904//EN"
 "http://www.w3.org/TR/2001/REC-SVG-20010904/DTD/svg10.dtd">
<svg version="1.0" xmlns="http://www.w3.org/2000/svg"
 width="28.000000pt" height="28.000000pt" viewBox="0 0 28.000000 28.000000"
 preserveAspectRatio="xMidYMid meet">
<metadata>
Created by potrace 1.11, written by Peter Selinger 2001-2013
</metadata>
<g transform="translate(0.000000,28.000000) scale(0.100000,-0.100000)"
fill="#000000" stroke="none">
<path d="M0 140 l0 -140 140 0 140 0 0 140 0 140 -140 0 -140 0 0 -140z m216
74 c19 -9 34 -22 34 -29 0 -18 -35 -46 -51 -40 -8 2 -21 0 -29 -5 -13 -9 -13
-12 3 -21 42 -25 1 -89 -58 -89 -50 0 -64 30 -34 72 21 29 21 32 5 44 -26 18
-16 47 24 66 43 22 63 22 106 2z"/>
<path d="M123 198 c-24 -12 -30 -32 -13 -43 14 -8 103 26 93 35 -15 14 -58 18
-80 8z"/>
<path d="M106 91 c-22 -24 -13 -41 19 -41 15 0 26 7 30 20 13 40 -19 54 -49
21z"/>
</g>
</svg>
