<?xml version="1.0" standalone="no"?>
<!DOCTYPE svg PUBLIC "-//W3C//DTD SVG 20010904//EN"
 "http://www.w3.org/TR/2001/REC-SVG-20010904/DTD/svg10.dtd">
<svg version="1.0" xmlns="http://www.w3.org/2000/svg"
 width="28.000000pt" height="28.000000pt" viewBox="0 0 28.000000 28.000000"
 preserveAspectRatio="xMidYMid meet">
<metadata>
Created by potrace 1.11, written by Peter Selinger 2001-2013
</metadata>
<g transform="translate(0.000000,28.000000) scale(0.100000,-0.100000)"
fill="#000000" stroke="none">
<path d="M0 140 l0 -140 140 0 140 0 0 140 0 140 -140 0 -140 0 0 -140z m184
90 c19 -7 26 -17 26 -37 0 -31 -35 -73 -61 -73 -33 0 -47 -11 -42 -31 5 -17
13 -20 52 -17 33 2 46 7 46 18 0 8 -6 14 -13 12 -8 -1 -12 3 -10 10 7 21 36
21 47 -1 23 -42 -70 -87 -126 -62 -22 10 -25 17 -21 49 3 21 -1 46 -8 57 -15
24 -4 44 41 68 36 19 37 20 69 7z"/>
<path d="M125 203 c-22 -6 -36 -23 -29 -35 10 -15 84 -9 91 8 10 26 -17 38
-62 27z"/>
</g>
</svg>
