<?xml version="1.0" standalone="no"?>
<!DOCTYPE svg PUBLIC "-//W3C//DTD SVG 20010904//EN"
 "http://www.w3.org/TR/2001/REC-SVG-20010904/DTD/svg10.dtd">
<svg version="1.0" xmlns="http://www.w3.org/2000/svg"
 width="28.000000pt" height="28.000000pt" viewBox="0 0 28.000000 28.000000"
 preserveAspectRatio="xMidYMid meet">
<metadata>
Created by potrace 1.11, written by Peter Selinger 2001-2013
</metadata>
<g transform="translate(0.000000,28.000000) scale(0.100000,-0.100000)"
fill="#000000" stroke="none">
<path d="M0 140 l0 -140 140 0 140 0 0 140 0 140 -140 0 -140 0 0 -140z m210
49 c0 -22 -15 -49 -57 -100 -54 -66 -83 -85 -83 -56 0 8 12 24 26 38 14 13 35
36 46 52 l20 28 -41 -7 c-37 -6 -41 -5 -41 14 0 25 60 61 103 62 24 0 27 -4
27 -31z"/>
<path d="M138 184 c-16 -8 -28 -16 -28 -19 0 -7 63 14 74 25 15 15 -14 12 -46
-6z"/>
</g>
</svg>
