<?xml version="1.0" standalone="no"?>
<!DOCTYPE svg PUBLIC "-//W3C//DTD SVG 20010904//EN"
 "http://www.w3.org/TR/2001/REC-SVG-20010904/DTD/svg10.dtd">
<svg version="1.0" xmlns="http://www.w3.org/2000/svg"
 width="28.000000pt" height="28.000000pt" viewBox="0 0 28.000000 28.000000"
 preserveAspectRatio="xMidYMid meet">
<metadata>
Created by potrace 1.11, written by Peter Selinger 2001-2013
</metadata>
<g transform="translate(0.000000,28.000000) scale(0.100000,-0.100000)"
fill="#000000" stroke="none">
<path d="M0 140 l0 -140 140 0 140 0 0 140 0 140 -140 0 -140 0 0 -140z m170
72 c0 -4 -13 -13 -30 -19 -34 -13 -44 -50 -10 -39 67 21 63 21 55 -13 -4 -17
-13 -45 -22 -61 -8 -17 -12 -37 -9 -45 3 -8 1 -15 -5 -15 -18 0 -21 28 -6 57
32 63 31 69 -13 65 -49 -5 -54 16 -14 53 26 24 54 33 54 17z"/>
</g>
</svg>
