<?xml version="1.0" standalone="no"?>
<!DOCTYPE svg PUBLIC "-//W3C//DTD SVG 20010904//EN"
 "http://www.w3.org/TR/2001/REC-SVG-20010904/DTD/svg10.dtd">
<svg version="1.0" xmlns="http://www.w3.org/2000/svg"
 width="28.000000pt" height="28.000000pt" viewBox="0 0 28.000000 28.000000"
 preserveAspectRatio="xMidYMid meet">
<metadata>
Created by potrace 1.11, written by Peter Selinger 2001-2013
</metadata>
<g transform="translate(0.000000,28.000000) scale(0.100000,-0.100000)"
fill="#000000" stroke="none">
<path d="M0 140 l0 -140 140 0 140 0 0 140 0 140 -140 0 -140 0 0 -140z m191
59 c8 -16 8 -32 0 -63 -6 -22 -10 -57 -8 -76 1 -26 -2 -35 -15 -38 -15 -3 -18
4 -18 37 0 40 -1 41 -33 41 -58 0 -76 42 -34 81 44 42 90 50 108 18z"/>
<path d="M118 172 c-29 -17 -36 -36 -17 -48 19 -11 59 17 59 43 0 27 -6 28
-42 5z"/>
</g>
</svg>
