<?xml version="1.0" standalone="no"?>
<!DOCTYPE svg PUBLIC "-//W3C//DTD SVG 20010904//EN"
 "http://www.w3.org/TR/2001/REC-SVG-20010904/DTD/svg10.dtd">
<svg version="1.0" xmlns="http://www.w3.org/2000/svg"
 width="28.000000pt" height="28.000000pt" viewBox="0 0 28.000000 28.000000"
 preserveAspectRatio="xMidYMid meet">
<metadata>
Created by potrace 1.11, written by Peter Selinger 2001-2013
</metadata>
<g transform="translate(0.000000,28.000000) scale(0.100000,-0.100000)"
fill="#000000" stroke="none">
<path d="M0 140 l0 -140 140 0 140 0 0 140 0 140 -140 0 -140 0 0 -140z m202
56 c9 -20 7 -31 -11 -58 -11 -18 -30 -52 -41 -75 -12 -24 -25 -43 -30 -43 -17
0 -11 21 21 73 24 39 27 48 12 42 -10 -4 -28 -10 -41 -13 -21 -4 -23 -1 -20
24 2 19 14 36 37 51 43 29 59 29 73 -1z"/>
<path d="M128 170 c-19 -16 -27 -30 -19 -30 18 0 81 39 81 51 0 18 -31 8 -62
-21z"/>
</g>
</svg>
