<?xml version="1.0" standalone="no"?>
<!DOCTYPE svg PUBLIC "-//W3C//DTD SVG 20010904//EN"
 "http://www.w3.org/TR/2001/REC-SVG-20010904/DTD/svg10.dtd">
<svg version="1.0" xmlns="http://www.w3.org/2000/svg"
 width="28.000000pt" height="28.000000pt" viewBox="0 0 28.000000 28.000000"
 preserveAspectRatio="xMidYMid meet">
<metadata>
Created by potrace 1.11, written by Peter Selinger 2001-2013
</metadata>
<g transform="translate(0.000000,28.000000) scale(0.100000,-0.100000)"
fill="#000000" stroke="none">
<path d="M0 140 l0 -140 140 0 140 0 0 140 0 140 -140 0 -140 0 0 -140z m215
70 c3 -5 1 -18 -4 -27 -10 -17 -10 -17 -11 0 0 28 -33 20 -70 -18 -28 -29 -32
-38 -20 -45 21 -13 46 5 61 42 11 30 13 31 16 10 5 -26 -52 -152 -68 -152 -11
0 -10 6 8 63 4 12 0 17 -15 17 -48 0 -39 58 15 95 39 26 77 33 88 15z"/>
</g>
</svg>
