<?xml version="1.0" standalone="no"?>
<!DOCTYPE svg PUBLIC "-//W3C//DTD SVG 20010904//EN"
 "http://www.w3.org/TR/2001/REC-SVG-20010904/DTD/svg10.dtd">
<svg version="1.0" xmlns="http://www.w3.org/2000/svg"
 width="28.000000pt" height="28.000000pt" viewBox="0 0 28.000000 28.000000"
 preserveAspectRatio="xMidYMid meet">
<metadata>
Created by potrace 1.11, written by Peter Selinger 2001-2013
</metadata>
<g transform="translate(0.000000,28.000000) scale(0.100000,-0.100000)"
fill="#000000" stroke="none">
<path d="M0 140 l0 -140 140 0 140 0 0 140 0 140 -140 0 -140 0 0 -140z m200
63 c0 -39 -51 -183 -65 -183 -12 0 -12 6 0 41 20 56 20 57 -17 55 -47 -2 -51
34 -8 74 37 34 90 42 90 13z"/>
<path d="M132 174 c-30 -24 -35 -44 -11 -44 13 0 59 46 59 60 0 16 -12 12 -48
-16z"/>
</g>
</svg>
